<mxfile host="Electron" agent="Mozilla/5.0 (Windows NT 10.0; Win64; x64) AppleWebKit/537.36 (KHTML, like Gecko) draw.io/26.2.15 Chrome/134.0.6998.205 Electron/35.2.1 Safari/537.36" version="26.2.15">
  <diagram name="Seite-1" id="hkXLiegTOqqQSBGPhN_e">
    <mxGraphModel dx="496" dy="348" grid="1" gridSize="10" guides="1" tooltips="1" connect="1" arrows="1" fold="1" page="1" pageScale="1" pageWidth="827" pageHeight="1169" math="0" shadow="0">
      <root>
        <mxCell id="0" />
        <mxCell id="1" parent="0" />
        <mxCell id="mikLJy5jebmbDdvNsNm9-1" value="" style="endArrow=none;html=1;rounded=0;exitX=1;exitY=0.5;exitDx=0;exitDy=0;exitPerimeter=0;entryX=0;entryY=0.5;entryDx=0;entryDy=0;entryPerimeter=0;fillColor=#b1ddf0;strokeColor=#10739e;" edge="1" parent="1" source="mikLJy5jebmbDdvNsNm9-14">
          <mxGeometry width="50" height="50" relative="1" as="geometry">
            <mxPoint x="360" y="340" as="sourcePoint" />
            <mxPoint x="480" y="339.5" as="targetPoint" />
          </mxGeometry>
        </mxCell>
        <mxCell id="mikLJy5jebmbDdvNsNm9-2" value="" style="endArrow=none;html=1;rounded=0;entryX=0.5;entryY=0;entryDx=0;entryDy=0;entryPerimeter=0;fillColor=#60a917;strokeColor=#2D7600;" edge="1" parent="1" target="mikLJy5jebmbDdvNsNm9-12">
          <mxGeometry width="50" height="50" relative="1" as="geometry">
            <mxPoint x="500" y="380" as="sourcePoint" />
            <mxPoint x="500" y="400" as="targetPoint" />
          </mxGeometry>
        </mxCell>
        <mxCell id="mikLJy5jebmbDdvNsNm9-3" value="" style="endArrow=none;html=1;rounded=0;fillColor=#60a917;strokeColor=#2D7600;" edge="1" parent="1">
          <mxGeometry width="50" height="50" relative="1" as="geometry">
            <mxPoint x="499.76" y="360" as="sourcePoint" />
            <mxPoint x="500" y="370" as="targetPoint" />
          </mxGeometry>
        </mxCell>
        <mxCell id="mikLJy5jebmbDdvNsNm9-4" value="" style="endArrow=none;html=1;rounded=0;fillColor=#b1ddf0;strokeColor=#10739e;" edge="1" parent="1">
          <mxGeometry width="50" height="50" relative="1" as="geometry">
            <mxPoint x="299.88" y="360" as="sourcePoint" />
            <mxPoint x="300.12" y="370" as="targetPoint" />
          </mxGeometry>
        </mxCell>
        <mxCell id="mikLJy5jebmbDdvNsNm9-5" value="" style="endArrow=none;html=1;rounded=0;exitX=1;exitY=0.5;exitDx=0;exitDy=0;exitPerimeter=0;fillColor=#b1ddf0;strokeColor=#10739e;" edge="1" parent="1">
          <mxGeometry width="50" height="50" relative="1" as="geometry">
            <mxPoint x="540" y="334.76" as="sourcePoint" />
            <mxPoint x="560" y="334.76" as="targetPoint" />
          </mxGeometry>
        </mxCell>
        <mxCell id="mikLJy5jebmbDdvNsNm9-6" value="" style="endArrow=none;html=1;rounded=0;fontColor=#FFFFFF;fillColor=#60a917;strokeColor=#2D7600;" edge="1" parent="1">
          <mxGeometry width="50" height="50" relative="1" as="geometry">
            <mxPoint x="540" y="354.76" as="sourcePoint" />
            <mxPoint x="560" y="354.76" as="targetPoint" />
          </mxGeometry>
        </mxCell>
        <mxCell id="mikLJy5jebmbDdvNsNm9-7" value="1000 MBit/s" style="text;html=1;align=center;verticalAlign=middle;resizable=0;points=[];autosize=1;strokeColor=none;fillColor=none;" vertex="1" parent="1">
          <mxGeometry x="553" y="320" width="90" height="30" as="geometry" />
        </mxCell>
        <mxCell id="mikLJy5jebmbDdvNsNm9-8" value="100&lt;span style=&quot;background-color: transparent; color: light-dark(rgb(0, 0, 0), rgb(255, 255, 255));&quot;&gt;&amp;nbsp;MBit/s&lt;/span&gt;" style="text;html=1;align=center;verticalAlign=middle;resizable=0;points=[];autosize=1;strokeColor=none;fillColor=none;" vertex="1" parent="1">
          <mxGeometry x="555" y="340" width="80" height="30" as="geometry" />
        </mxCell>
        <mxCell id="mikLJy5jebmbDdvNsNm9-9" value="" style="endArrow=none;html=1;rounded=0;exitX=1;exitY=0.5;exitDx=0;exitDy=0;exitPerimeter=0;entryX=0;entryY=0.5;entryDx=0;entryDy=0;entryPerimeter=0;fontColor=#FFFFFF;fillColor=#60a917;strokeColor=#2D7600;" edge="1" parent="1" source="mikLJy5jebmbDdvNsNm9-13" target="mikLJy5jebmbDdvNsNm9-12">
          <mxGeometry width="50" height="50" relative="1" as="geometry">
            <mxPoint x="320" y="460" as="sourcePoint" />
            <mxPoint x="340" y="460" as="targetPoint" />
          </mxGeometry>
        </mxCell>
        <mxCell id="mikLJy5jebmbDdvNsNm9-10" value="" style="endArrow=none;html=1;rounded=0;entryX=0.5;entryY=0;entryDx=0;entryDy=0;entryPerimeter=0;fillColor=#b1ddf0;strokeColor=#10739e;" edge="1" parent="1" target="mikLJy5jebmbDdvNsNm9-13">
          <mxGeometry width="50" height="50" relative="1" as="geometry">
            <mxPoint x="300" y="380" as="sourcePoint" />
            <mxPoint x="300" y="412" as="targetPoint" />
          </mxGeometry>
        </mxCell>
        <mxCell id="mikLJy5jebmbDdvNsNm9-11" value="S2" style="shape=mxgraph.cisco.switches.atm_fast_gigabit_etherswitch;sketch=0;html=1;pointerEvents=1;dashed=0;fillColor=#036897;strokeColor=#ffffff;strokeWidth=2;verticalLabelPosition=bottom;verticalAlign=top;align=center;outlineConnect=0;" vertex="1" parent="1">
          <mxGeometry x="480" y="320" width="40" height="40" as="geometry" />
        </mxCell>
        <mxCell id="mikLJy5jebmbDdvNsNm9-12" value="S3" style="shape=mxgraph.cisco.switches.atm_fast_gigabit_etherswitch;sketch=0;html=1;pointerEvents=1;dashed=0;fillColor=#036897;strokeColor=#ffffff;strokeWidth=2;verticalLabelPosition=bottom;verticalAlign=top;align=center;outlineConnect=0;" vertex="1" parent="1">
          <mxGeometry x="480" y="440" width="40" height="40" as="geometry" />
        </mxCell>
        <mxCell id="mikLJy5jebmbDdvNsNm9-13" value="S4" style="shape=mxgraph.cisco.switches.atm_fast_gigabit_etherswitch;sketch=0;html=1;pointerEvents=1;dashed=0;fillColor=#036897;strokeColor=#ffffff;strokeWidth=2;verticalLabelPosition=bottom;verticalAlign=top;align=center;outlineConnect=0;" vertex="1" parent="1">
          <mxGeometry x="280" y="440" width="40" height="40" as="geometry" />
        </mxCell>
        <mxCell id="mikLJy5jebmbDdvNsNm9-14" value="S1" style="shape=mxgraph.cisco.switches.atm_fast_gigabit_etherswitch;sketch=0;html=1;pointerEvents=1;dashed=0;fillColor=#036897;strokeColor=#ffffff;strokeWidth=2;verticalLabelPosition=bottom;verticalAlign=top;align=center;outlineConnect=0;" vertex="1" parent="1">
          <mxGeometry x="280" y="320" width="40" height="40" as="geometry" />
        </mxCell>
        <mxCell id="mikLJy5jebmbDdvNsNm9-21" value="&lt;font style=&quot;color: rgb(255, 0, 0);&quot;&gt;4&lt;/font&gt;" style="text;html=1;align=center;verticalAlign=middle;resizable=0;points=[];autosize=1;strokeColor=none;fillColor=none;" vertex="1" parent="1">
          <mxGeometry x="384" y="310" width="30" height="30" as="geometry" />
        </mxCell>
        <mxCell id="mikLJy5jebmbDdvNsNm9-22" value="&lt;font style=&quot;color: rgb(255, 0, 0);&quot;&gt;19&lt;/font&gt;" style="text;html=1;align=center;verticalAlign=middle;resizable=0;points=[];autosize=1;strokeColor=none;fillColor=none;" vertex="1" parent="1">
          <mxGeometry x="500" y="390" width="40" height="30" as="geometry" />
        </mxCell>
        <mxCell id="mikLJy5jebmbDdvNsNm9-23" value="&lt;font style=&quot;color: rgb(255, 0, 0);&quot;&gt;4&lt;/font&gt;" style="text;html=1;align=center;verticalAlign=middle;resizable=0;points=[];autosize=1;strokeColor=none;fillColor=none;" vertex="1" parent="1">
          <mxGeometry x="270" y="390" width="30" height="30" as="geometry" />
        </mxCell>
        <mxCell id="mikLJy5jebmbDdvNsNm9-24" value="&lt;font style=&quot;color: rgb(255, 0, 0);&quot;&gt;19&lt;/font&gt;" style="text;html=1;align=center;verticalAlign=middle;resizable=0;points=[];autosize=1;strokeColor=none;fillColor=none;" vertex="1" parent="1">
          <mxGeometry x="379" y="460" width="40" height="30" as="geometry" />
        </mxCell>
        <mxCell id="mikLJy5jebmbDdvNsNm9-25" value="" style="shape=flexArrow;endArrow=classic;html=1;rounded=0;endWidth=4.126984126984127;endSize=5.6;width=3.333333333333333;fillColor=#a20025;strokeColor=#6F0000;" edge="1" parent="1">
          <mxGeometry width="50" height="50" relative="1" as="geometry">
            <mxPoint x="556" y="437" as="sourcePoint" />
            <mxPoint x="532" y="414" as="targetPoint" />
          </mxGeometry>
        </mxCell>
        <mxCell id="mikLJy5jebmbDdvNsNm9-28" value="Metrik" style="text;html=1;align=center;verticalAlign=middle;resizable=0;points=[];autosize=1;fontSize=9;fontColor=#990000;" vertex="1" parent="1">
          <mxGeometry x="548" y="434" width="50" height="20" as="geometry" />
        </mxCell>
      </root>
    </mxGraphModel>
  </diagram>
</mxfile>
